<?xml version="1.0" encoding="utf-8"?>
<!-- Generator: Adobe Illustrator 24.1.3, SVG Export Plug-In . SVG Version: 6.00 Build 0)  -->
<svg version="1.1" id="Layer_1" xmlns="http://www.w3.org/2000/svg" xmlns:xlink="http://www.w3.org/1999/xlink" x="0px" y="0px"
	 viewBox="0 0 1021.4 57" style="enable-background:new 0 0 1021.4 57;" xml:space="preserve">
<style type="text/css">
	.st0{fill:#D68500;}
</style>
<g id="Layer_1_1_">
</g>
<path class="st0" d="M1015.5,0h-8.2c-3.2,0-5.9,2.6-5.9,5.9V22h-80V5.9c0-3.2-2.6-5.9-5.9-5.9h-8.2c-3.2,0-5.9,2.6-5.9,5.9V22h-80
	V5.9c0-3.2-2.6-5.9-5.9-5.9h-8.2c-3.2,0-5.9,2.6-5.9,5.9V22h-80V5.9c0-3.2-2.6-5.9-5.9-5.9h-8.2c-3.2,0-5.9,2.6-5.9,5.9V22h-80V5.9
	c0-3.2-2.6-5.9-5.9-5.9h-8.2c-3.2,0-5.9,2.6-5.9,5.9V22h-80V5.9c0-3.3-2.6-5.9-5.9-5.9h-1.4h-6.8h-1.4c-3.2,0-5.9,2.6-5.9,5.9V22
	h-80V5.9c0-3.2-2.6-5.9-5.9-5.9h-8.2c-3.2,0-5.9,2.6-5.9,5.9V22h-80V5.9c0-3.2-2.6-5.9-5.9-5.9h-8.2c-3.2,0-5.9,2.6-5.9,5.9V22h-80
	V5.9c0-3.2-2.6-5.9-5.9-5.9h-8.2c-3.2,0-5.9,2.6-5.9,5.9V22h-80V5.9c0-3.2-2.6-5.9-5.9-5.9h-8.2c-3.2,0-5.9,2.6-5.9,5.9V22H20V5.9
	C20,2.6,17.4,0,14.1,0H5.9C2.6,0,0,2.6,0,5.9v45.2C0,54.4,2.6,57,5.9,57h8.2c3.2,0,5.9-2.6,5.9-5.9V40h80v11.1
	c0,3.2,2.6,5.9,5.9,5.9h8.2c3.2,0,5.9-2.6,5.9-5.9V40h80v11.1c0,3.2,2.6,5.9,5.9,5.9h8.2c3.2,0,5.9-2.6,5.9-5.9V40h80v11.1
	c0,3.2,2.6,5.9,5.9,5.9h8.2c3.2,0,5.9-2.6,5.9-5.9V40h80v11.1c0,3.2,2.6,5.9,5.9,5.9h8.2c3.2,0,5.9-2.6,5.9-5.9V40h80v11.1
	c0,3.2,2.6,5.9,5.9,5.9h1.4h6.8h1.4c3.2,0,5.9-2.6,5.9-5.9V40h80v11.1c0,3.2,2.6,5.9,5.9,5.9h8.2c3.2,0,5.9-2.6,5.9-5.9V40h80v11.1
	c0,3.2,2.6,5.9,5.9,5.9h8.2c3.2,0,5.9-2.6,5.9-5.9V40h80v11.1c0,3.2,2.6,5.9,5.9,5.9h8.2c3.2,0,5.9-2.6,5.9-5.9V40h80v11.1
	c0,3.2,2.6,5.9,5.9,5.9h8.2c3.2,0,5.9-2.6,5.9-5.9V40h80v11.1c0,3.2,2.6,5.9,5.9,5.9h8.2c3.2,0,5.9-2.6,5.9-5.9V40V22V5.9
	C1021.4,2.6,1018.8,0,1015.5,0z"/>
</svg>
