<?xml version="1.0" encoding="utf-8"?>
<!-- Generator: Adobe Illustrator 24.1.3, SVG Export Plug-In . SVG Version: 6.00 Build 0)  -->
<svg version="1.1" xmlns="http://www.w3.org/2000/svg" xmlns:xlink="http://www.w3.org/1999/xlink" x="0px" y="0px"
	 viewBox="0 0 49 48" style="enable-background:new 0 0 49 48;" xml:space="preserve">
<style type="text/css">
	.st0{fill:#D68500;}
	.st1{fill:#FCA800;}
	.st2{fill:#904D3B;}
	.st3{fill:#431A0F;}
	.st4{fill:#A65200;}
	.st5{fill:#E58700;}
	.st6{fill:none;stroke:#A65200;stroke-width:3.734;stroke-linecap:round;stroke-miterlimit:10;}
	.st7{fill:none;stroke:#824200;stroke-width:1.6989;stroke-linecap:round;stroke-miterlimit:10;}
	.st8{fill:#704913;}
	.st9{fill:#FFD8A8;}
	.st10{fill:#58C9DF;}
	.st11{fill:#752D00;}
	.st12{fill:#441701;}
	.st13{fill:#00B7D7;}
	.st14{fill:none;stroke:#D87F5B;stroke-width:2.6191;stroke-linecap:round;stroke-linejoin:round;stroke-miterlimit:10;}
	.st15{fill:none;stroke:#D87F5B;stroke-width:2.5665;stroke-linecap:round;stroke-linejoin:round;stroke-miterlimit:10;}
	.st16{fill:#00B4D7;}
	.st17{fill:#235662;}
</style>
<g id="Layer_1">
</g>
<g id="Layer_2">
	<g>
		<path class="st16" d="M44.7,21.9c-1-0.4-2.4,0.2-3.7,0.7c-1.1,0.4-2.2,0.7-2.8,0c-0.2-2.2-1-4.2-2.1-6c0.5-0.5,1.6-1,2.4-1.5
			c0.8-0.5,1.4-1.1,1.3-1.8c-0.5-2.6-2.4-4.6-4.5-4.4c-0.6,0.1-1.2,0.5-1.8,1.1c-0.7,0.7-1.3,1.5-1.9,2.2c-0.5-0.3-0.9-0.5-1.4-0.7
			c-1.7-0.8-3.7-1.3-5.7-1.3c0,0-0.1,0-0.1,0c-0.6,0-1.1,0-1.6,0.1c-0.4-0.8-0.6-1.8-0.9-2.7c-0.7-2.2-1.6-4.2-4.8-3.1
			c-3.4,1.1-3.5,3.5-2.4,6.1c0.3,0.7,0.7,1.5,1.1,2.2c0.1,0.1,0.1,0.3,0.2,0.4c-1.9,1.5-3.4,3.6-4.3,5.9c-0.9-0.1-1.8-0.4-2.7-0.8
			c-1.4-0.5-2.7-1.1-3.9-0.5c-2,1-3.4,5.3-0.9,6.6C5,25,6.5,24.9,7.9,25.1c1.4,0.2,2.6,0.7,3.3,2.4c0.4,1.7,1.2,3.3,2.2,4.7
			c0,0.4-0.1,0.8-0.3,1.2c-0.3,0.5-0.8,1-1.2,1.5c-2.6,2.5-6.2,4.2,0,8.8c1.9,1.4,4.6-1.8,6.5-4.2c0.5-0.6,0.9-1.2,1.2-1.6
			c0.2-0.3,0.5-0.5,0.8-0.7c1.3,0.4,2.7,0.6,4.1,0.6c0.8,0,1.6-0.1,2.4-0.2c1.2,0.5,1.9,1.3,2.4,2.4c1.4,2.7,1.6,6.4,6.2,5
			c4.6-1.4,3.1-5,1.8-7.1c-0.4-0.6-0.9-1.1-1.4-1.7c-0.7-0.7-1.3-1.5-1.6-2.4c1.5-1.5,2.6-3.3,3.3-5.4c0.8,0,1.8,0.3,2.8,0.5
			c0.8,0.1,1.7,0.3,2.7,0.2C45.8,28.7,46.3,23,44.7,21.9z M26.3,28c-0.4,0.2-0.9,0.2-1.4,0.2c-3.5,0-4.7-1.9-4.7-4.3
			s1.4-4.3,3.8-4.3c2.3,0,4.8,1.9,4.7,4.2c0,0,0,0,0,0C28.6,26.4,27.6,27.6,26.3,28z"/>
		<g>
			<path class="st17" d="M47.7,20.1c-1.9-3.1-5.6-1-7.2-0.3c-0.2-0.8-0.5-1.6-0.8-2.4c1.5-0.6,4.3-1.2,3.2-6.5
				c-0.5-2.5-3.3-5.5-6.4-6.1C33.8,4,32.4,7,31,8.7c-1.9-0.8-4-1.3-6.3-1.3c-0.8-2.7-0.7-6.7-6.4-7.1c-3.7-0.3-8.1,4-7.7,6.4
				c0.5,2.5,1.5,4.3,1.9,5.7c-1,1-1.8,2.1-2.5,3.3C8.5,15.4,5.7,13.9,5,14c-2.8,0.2-4.3,3-4.7,4.7c-0.4,2.2,0.1,4.8,1.1,6.7
				c1.8,3.7,4.5,1.5,6.8,2.5c0.1,0.1,0.2,0.2,0.3,0.4C8.7,29.2,9,30,9.3,30.8c0.2,0.6,0.3,1.1,0.3,1.3c0.2,0.6-0.6,1.5-2.8,4.7
				c-1.4,2.2-1.7,6.1,2.8,8.5c1.9,1,4.5,1.7,6.8,0.5c2.5-1.3,3.2-4.1,4.7-5.6c1,0.2,2.1,0.3,3.2,0.3c0.3,0,0.5,0,0.8,0
				c1.2,0.5,2.2,1.3,2.5,1.9c2.9,6.7,5.2,6.9,9.5,4.7c4.9-2.5,4.7-7.4,0.2-13c0.6-0.8,1.1-1.6,1.6-2.4
				C47.9,33.6,50.2,24.1,47.7,20.1z M37.6,28.2c-0.7,2-1.8,3.9-3.3,5.4c0.3,0.9,0.9,1.7,1.6,2.4c0.5,0.6,1,1.1,1.4,1.7
				c1.3,2.1,2.8,5.7-1.8,7.1c-4.6,1.4-4.8-2.2-6.2-5c-0.5-1-1.2-1.9-2.4-2.4c-0.8,0.1-1.6,0.2-2.4,0.2c-1.4,0-2.8-0.2-4.1-0.6
				c-0.3,0.1-0.6,0.4-0.8,0.7c-0.3,0.4-0.7,1-1.2,1.6c-1.8,2.4-4.6,5.6-6.5,4.2c-6.2-4.6-2.5-6.3,0-8.8c0.5-0.5,0.9-0.9,1.2-1.5
				c0.2-0.4,0.3-0.8,0.3-1.2c-1-1.4-1.8-3-2.2-4.7c-0.6-1.6-1.9-2.1-3.3-2.4C6.5,24.9,5,25,4,24.5c-2.5-1.4-1-5.6,0.9-6.6
				c1.1-0.6,2.5,0,3.9,0.5c0.9,0.4,1.8,0.7,2.7,0.8c0.9-2.3,2.4-4.4,4.3-5.9c-0.1-0.1-0.1-0.3-0.2-0.4c-0.4-0.7-0.8-1.5-1.1-2.2
				c-1.1-2.6-1-5,2.4-6.1c3.3-1.1,4.1,0.8,4.8,3.1c0.3,0.9,0.5,1.9,0.9,2.7c0.5-0.1,1.1-0.1,1.6-0.1c0,0,0.1,0,0.1,0
				c2,0,3.9,0.5,5.7,1.3c0.5,0.2,0.9,0.5,1.4,0.7c0.6-0.6,1.3-1.5,1.9-2.2c0.6-0.6,1.2-1.1,1.8-1.1c2.1-0.2,4,1.8,4.5,4.4
				c0.2,0.8-0.5,1.3-1.3,1.8c-0.8,0.5-1.9,1-2.4,1.5c1.1,1.8,1.9,3.8,2.1,6c0.6,0.7,1.7,0.4,2.8,0c1.3-0.5,2.7-1.1,3.7-0.7
				c1.6,1.1,1.1,6.8-1.6,7c-1,0.1-1.9,0-2.7-0.2C39.3,28.5,38.4,28.2,37.6,28.2z"/>
			<path class="st17" d="M24,19.7c-2.4,0-3.8,1.9-3.8,4.3s1.3,4.3,4.7,4.3c0.5,0,1-0.1,1.4-0.2c1.3-0.5,2.3-1.7,2.4-4c0,0,0,0,0,0
				C28.8,21.6,26.3,19.7,24,19.7z"/>
		</g>
	</g>
</g>
</svg>
