<?xml version="1.0" encoding="utf-8"?>
<!-- Generator: Adobe Illustrator 24.1.3, SVG Export Plug-In . SVG Version: 6.00 Build 0)  -->
<svg version="1.1" xmlns="http://www.w3.org/2000/svg" xmlns:xlink="http://www.w3.org/1999/xlink" x="0px" y="0px"
	 viewBox="0 0 156 224" style="enable-background:new 0 0 156 224;" xml:space="preserve">
<style type="text/css">
	.st0{fill:#D68500;}
	.st1{fill:#FCA800;}
	.st2{fill:#904D3B;}
	.st3{fill:#431A0F;}
	.st4{fill:#A65200;}
	.st5{fill:#E58700;}
	.st6{fill:none;stroke:#A65200;stroke-width:3.734;stroke-linecap:round;stroke-miterlimit:10;}
	.st7{fill:none;stroke:#824200;stroke-width:1.6989;stroke-linecap:round;stroke-miterlimit:10;}
	.st8{fill:#704913;}
	.st9{fill:#FFD8A8;}
	.st10{fill:#58C9DF;}
	.st11{fill:#752D00;}
	.st12{fill:#441701;}
	.st13{fill:#00B7D7;}
	.st14{fill:none;stroke:#D87F5B;stroke-width:2.6191;stroke-linecap:round;stroke-linejoin:round;stroke-miterlimit:10;}
	.st15{fill:none;stroke:#D87F5B;stroke-width:2.5665;stroke-linecap:round;stroke-linejoin:round;stroke-miterlimit:10;}
	.st16{fill:#00B4D7;}
	.st17{fill:#235662;}
</style>
<g id="Layer_1">
</g>
<g id="Layer_2">
	<g>
		<g>
			<path class="st3" d="M148.3,163.4L0.1,151.6v-20.9l11.8-3.6l-11.8-3.8V3.4C73.8-9.4,155.6,24.3,155.6,24.3L153.5,64
				c0,0-7.9-2.4-13.4,2.2l13.6,4.5L148.3,163.4z"/>
			<path class="st8" d="M97.4,224.3h-40v-70.7c0,0,30.6-6.4,32.7,0.7C95.6,172.5,97.4,224.3,97.4,224.3z"/>
			<path class="st8" d="M148.3,163.4L0.1,151.6v-20.9l11.8-3.6l-11.8-3.8V3.4C73.8-9.4,155.6,24.3,155.6,24.3L153.5,64
				c0,0-7.9-2.4-13.4,2.2l13.6,4.5L148.3,163.4z"/>
			<g>
				<path class="st9" d="M139.3,152.9L10.1,142.6v-10l10.3-5.9l-10.3-6V13.5C74.3,2.4,145.6,31.7,145.6,31.7l-1.8,27.1
					c0,0-7.1,3.3-11.8,7.3l12.1,6L139.3,152.9z"/>
				<path class="st9" d="M90.5,224.3H64.7v-43.6c0,0,17.3-2.7,22-13c0.1-0.3,0.6,6.8,1.3,16c0.1,1.5-6.8,5.2-6.8,5.2l6.4-0.9
					C88.3,202.1,90.5,224.3,90.5,224.3z"/>
			</g>
		</g>
		<g>
			<g>
				<path class="st10" d="M80,30.1c2.3-1.1,4.9-0.8,5.8,1.7c0.8,0.6,2.1,0.4,2.7,1.3c2.4,3.9-2.9,6.4,3.7,6.8
					c7.5,2.6-2.1,7.9-1.7,11.8c1,3.3,3.8,5.5,5.1,8.6c1.5,1.8,1.1,4.7,2.8,6.2c1.6,0.1,4.4-2.1,4.6,1c-1.7,5.6-4.3,21.7-12.3,12
					c-4.5-4.9-4.7-12.4-9.3-17c-6.2-6-14.2-6.5-21.6-2.3c-11.3,3-17.3,25.8-6.7,32.6c11.7,7.5,21.8,2.3,12.2,21
					c-33,1.7-43.8-39.6-25.3-62.4C59.9,30.2,65.7,43.3,80,30.1z M94.1,72.5c0.4,0.8,0.6,1.7,1.4,2.1C96.1,72.8,96.1,72.2,94.1,72.5z
					 M33.6,80.3c1,3.2,1.6-2.3,1.7-3.4C33.3,76.6,33.6,79,33.6,80.3z"/>
			</g>
			<path class="st10" d="M106.1,42.2c3.4-0.9,5.8,1.4,7.3,4.1c6,4.9-1.4,12.7-7.1,13.4c-3.1,0-8.8,0-9.6-3.7
				C97.3,50.4,100.1,44,106.1,42.2z"/>
			<g>
				<path class="st10" d="M69.1,81.3c6.8-2.1,9.6,5.8,13.7,9.4c3.3,2.3,6.6,4.5,9.6,7.2c9.7,8.4,12.5,12.8,0.4,20.6
					c-1.2,0.8-2.1,1.7-2.6,3.1c-3.1,2.1-6.5,3.7-9.7,5.6c-3.6,2.2-7,6.3-11.6,5.9c-6.6-4.4-2.9-13.6-1.4-19.8c0.1-1.4,1-2,2.2-2.3
					c1.2-3.7,1.7-7.7,2-11.6C72.5,93.5,64.1,87,69.1,81.3z M91,106.2c0,2.4-7.3,11.9-1.1,8.3C92.8,111.5,97,108.6,91,106.2z"/>
			</g>
		</g>
		<path class="st8" d="M3.8,29.7c0,0,13.6-4.5,24.6,0.9L3.8,29.7z"/>
		<path class="st8" d="M3.8,117.9c0,0,8.2-9.1,18.2,0.9L3.8,117.9z"/>
		<path class="st8" d="M3.8,40.3c0,0,9.6,3.2,17.3-0.6L3.8,40.3z"/>
		<path class="st8" d="M126.6,82.7c8.2,9,22.6,9.6,22.6,9.6L126.6,82.7z"/>
		<path class="st8" d="M146.7,87c0,0-5.6-12.7-20.1-11.8L146.7,87"/>
	</g>
</g>
</svg>
