<?xml version="1.0" encoding="utf-8"?>
<!-- Generator: Adobe Illustrator 24.1.3, SVG Export Plug-In . SVG Version: 6.00 Build 0)  -->
<svg version="1.1" id="Layer_1" xmlns="http://www.w3.org/2000/svg" xmlns:xlink="http://www.w3.org/1999/xlink" x="0px" y="0px"
	 viewBox="0 0 515.5 200.5" style="enable-background:new 0 0 515.5 200.5;" xml:space="preserve">
<style type="text/css">
	.st0{fill:#752D00;}
	.st1{fill:#441701;}
	.st2{fill:#FCA800;}
	.st3{fill:#00B7D7;}
	.st4{fill:none;stroke:#D87F5B;stroke-width:2.6191;stroke-linecap:round;stroke-linejoin:round;stroke-miterlimit:10;}
	.st5{fill:none;stroke:#D87F5B;stroke-width:2.5665;stroke-linecap:round;stroke-linejoin:round;stroke-miterlimit:10;}
	.st6{fill:url(#SVGID_1_);}
	.st7{fill:url(#SVGID_2_);}
	.st8{fill:url(#SVGID_3_);}
	.st9{fill:url(#SVGID_4_);}
	.st10{fill:url(#SVGID_5_);}
	.st11{fill:url(#SVGID_6_);}
	.st12{fill:url(#SVGID_7_);}
	.st13{fill:url(#SVGID_8_);}
	.st14{fill:url(#SVGID_9_);}
	.st15{fill:url(#SVGID_10_);}
	.st16{fill:url(#SVGID_11_);}
	.st17{fill:url(#SVGID_12_);}
	.st18{fill:url(#SVGID_13_);}
	.st19{fill:url(#SVGID_14_);}
	.st20{fill:url(#SVGID_15_);}
	.st21{font-family:'SourceSansPro-Semibold';}
	.st22{font-size:12px;}
</style>
<g id="Layer_1_1_">
</g>
<g>
	<polygon class="st0" points="0,53.1 28.2,49.1 28.2,102.6 0,102.6 	"/>
	<polygon class="st1" points="14.1,51.1 28.2,49.1 28.2,102.6 18.2,102.6 	"/>
</g>
<g>
	<polygon class="st0" points="515.5,43.1 487.3,39 487.3,92.5 515.5,92.5 	"/>
	<polygon class="st1" points="501.4,41 487.3,39 487.3,92.5 496.4,92.5 	"/>
</g>
<path class="st0" d="M463.4,129.7H51.7c-14.4,0-26.2-11.3-26.9-25.6l-3.4-69.6C20.6,19.3,32.7,6.4,47.9,6.2L469.4,0
	c16-0.2,28.6,13.4,27.3,29.3l-6.5,75.8C489,119,477.4,129.7,463.4,129.7z"/>
<g>
	<ellipse transform="matrix(0.9381 -0.3464 0.3464 0.9381 -37.2242 21.0965)" class="st1" cx="40.4" cy="114.7" rx="6.1" ry="8.1"/>
	<ellipse transform="matrix(0.9381 -0.3464 0.3464 0.9381 23.7891 166.6845)" class="st1" cx="478.2" cy="16.8" rx="6.1" ry="8.1"/>
	<ellipse transform="matrix(0.5329 -0.8462 0.8462 0.5329 -5.4366 41.9701)" class="st1" cx="35.3" cy="25.9" rx="9.9" ry="7.4"/>
	
		<ellipse transform="matrix(0.5329 -0.8462 0.8462 0.5329 124.4377 454.7775)" class="st1" cx="474.2" cy="114.7" rx="7.8" ry="5.8"/>
</g>
<g>
	<g>
		<path class="st1" d="M293.6,15.2c4.6-1.3,14.5,0.8,9.9,6.8c-2.3,3.1-16.8,4.7-25.2,6.2c-0.5,0.1-1.3,0.2-2.1,0.4
			c-1.1,0.2-1.7,1.2-1.5,2.2c1.1,4.9,2.4,9.9,3.7,14.8c1.5,6.6-0.3,9.1,12.3,5.4c7.4-2.2,9.6,6.6,4.8,8.4
			c-14.8,5.5-13.8,0.5-12.1,16.2c0.5,5.2,2.3,10.8,1,15.9c-1.1,5.1-7.5,5.5-8.9,0.4c-5.9-20.7-8.5-42.3-12.7-63.5
			C260.7,17.8,287.8,16.2,293.6,15.2z"/>
		<g>
			<path class="st1" d="M118.7,31.8c12.4-7.4,22.7-3,28.4,3.6c14.7,16.9,9.7,48.2-9.5,55.9C102.7,105.6,91.4,48,118.7,31.8z
				 M113.7,53.2c-2.7,12.3-1.3,28.6,13.7,27.8c20.5-1.8,24.5-38,4.5-41.8C122,37.3,114.9,47.4,113.7,53.2z"/>
		</g>
		<path class="st1" d="M256.1,36.3c8.5-1.1,1.3,24,0.7,30.1c-3,36.7-14.5,25.1-23.9-0.9c-1.3,5.8,3.1,28.4-6.9,22.3
			c-4.4-2.7-1.2-19.9-0.6-25.3c1.5-5.3-0.7-29.5,7.8-16.7c3.1,4.7,6.2,9.2,8.6,14c2.1,3.6,2.2,8.3,4.9,11.3
			c2.7-10.3,1.4-22.2,5.6-32C253,37.6,254.4,36.4,256.1,36.3z"/>
		<g>
			<path class="st1" d="M336.4,38.1c17.6-3.6,25.4,16.4,7.6,24.5c5.5,5.8,20.2,11.8,18,18c-2.9,8.1-20-8.9-26.2-10.8
				c-0.7,3.4,0.2,11.1-4.4,10.4c-8-1.3-2.4-26.5-2.1-34C329.4,39.8,330.1,39.3,336.4,38.1z M337.9,45.7c-1-0.2-2,0.5-2.1,1.6
				c-0.5,4.3-1.9,11.6,3.2,9.4C350.9,52.4,346.6,47.1,337.9,45.7z"/>
		</g>
		<g>
			<path class="st1" d="M158.3,47.5c14.7-10.2,38.7,9.4,27.2,23.8c-4.3,5.7-10.4,9.6-17.1,11.8c0.2,7.5,6.1,21.7,0.8,23.2
				c-6.7,1.9-7.6-19.1-8.2-24.6C160.3,73,155,50.7,158.3,47.5z M165.1,55.8l2.6,18.5C183.1,69.1,184.3,52.4,165.1,55.8z"/>
		</g>
		<path class="st1" d="M370.9,43.8c6.3-2.5,12.8,11.8,15,16.7c0.4,0.7,1.3,0.8,1.8,0.2c4.9-6.6,9.6-18.6,18.5-17.3
			c7.5,5.9-2,61.1-10.7,46.8c-2-3.7,6.4-31.5,1.9-26.8c-11.6,18.3-15.6,11.9-22.8-3.3c-0.2-0.4-0.7-0.3-0.8,0.1
			c-0.9,8.1-0.3,17.1-4.2,24.3c-2.3,2.9-5.3,0.7-4.9-2.5C364.8,72,368,45.7,370.9,43.8z"/>
		<path class="st1" d="M202,50.5c4.9-1.3,19.1-4.6,14.6,4.9c-1.3,2.8-17.2,3.4-17.3,4.1c-0.5,4.6,0.2,9.8,0.2,9.8
			c5.2-1.6,20.4-5.3,18.2,3.1c-0.8,3.1-19.8,4.6-19.8,4.6c-1,4.1,1.3,8.6,1.3,8.6c3.8,1.4,11.4-1.5,14.8-1.7
			c6.7-0.5,11.5,7.8,4.1,9.9c-9.2,2.5-25.7,10.4-26.5-4.6c-0.5-6-5.5-9.1-0.7-14.7C192.5,65.3,189.3,51.4,202,50.5z"/>
		<g>
			<path class="st1" d="M305.3,49.9c4.7-3.1,15.1,17.1,17.4,20.9c3.8,6.5,4,24.5-3.8,11.4c-1.3-2.1-2.6-4.3-3.3-5.6
				c-0.4-0.6-1.1-1.1-1.9-1.1c-2.7,0-6.1,0.2-7,1c-3,2.5-0.4,9.1-5.8,11.1C293.1,89,300.9,52.2,305.3,49.9z M307.7,64.2
				c-1,3.6-0.9,5.7,2.6,4c0.8-0.4,1-1.1,0.4-1.9c-0.5-0.8-1.3-1.7-2.1-2.4C308.5,63.6,307.9,63.8,307.7,64.2z"/>
		</g>
	</g>
	<g>
		<path class="st2" d="M296.3,11.5c4.6-1.3,14.5,0.8,9.9,6.8c-2.3,3.1-16.8,4.7-25.2,6.2c-0.5,0.1-1.3,0.2-2.1,0.4
			c-1.1,0.2-1.7,1.2-1.5,2.2c1.1,4.9,2.4,9.9,3.7,14.8c1.5,6.6-0.3,9.1,12.3,5.4c7.4-2.2,9.6,6.6,4.8,8.4
			c-14.8,5.5-13.8,0.5-12.1,16.2c0.5,5.2,2.3,10.8,1,15.9c-1.1,5.1-7.5,5.5-8.9,0.4c-5.9-20.7-8.5-42.3-12.7-63.5
			C263.4,14.2,290.5,12.6,296.3,11.5z"/>
		<g>
			<path class="st2" d="M121.5,28.2c12.4-7.4,22.7-3,28.4,3.6c14.7,16.9,9.7,48.2-9.5,55.9C105.4,101.9,94.1,44.4,121.5,28.2z
				 M116.4,49.6c-2.7,12.3-1.3,28.6,13.7,27.8c20.5-1.8,24.5-38,4.5-41.8C124.8,33.6,117.6,43.8,116.4,49.6z"/>
		</g>
		<path class="st2" d="M258.8,32.7c8.5-1.1,1.3,24,0.7,30.1c-3,36.7-14.5,25.1-23.9-0.9c-1.3,5.8,3.1,28.4-6.9,22.3
			c-4.4-2.7-1.2-19.9-0.6-25.3c1.5-5.3-0.7-29.5,7.8-16.7c3.1,4.7,6.2,9.2,8.6,14c2.1,3.6,2.2,8.3,4.9,11.3
			c2.7-10.3,1.4-22.2,5.6-32C255.7,34,257.1,32.8,258.8,32.7z"/>
		<g>
			<path class="st2" d="M339,34.4c17.6-3.6,25.4,16.4,7.6,24.5c5.5,5.8,20.2,11.8,18,18c-2.9,8.1-20-8.9-26.2-10.8
				c-0.7,3.4,0.2,11.1-4.4,10.4c-8-1.3-2.4-26.5-2.1-34C332.2,36.1,332.8,35.6,339,34.4z M340.6,42.1c-1-0.2-2,0.5-2.1,1.6
				c-0.5,4.3-1.9,11.6,3.2,9.4C353.6,48.7,349.3,43.4,340.6,42.1z"/>
		</g>
		<g>
			<path class="st2" d="M161.1,43.8c14.7-10.2,38.7,9.4,27.2,23.8c-4.3,5.7-10.4,9.6-17.1,11.8c0.2,7.5,6.1,21.7,0.8,23.2
				c-6.7,1.9-7.6-19.1-8.2-24.6C163.1,69.4,157.8,47.1,161.1,43.8z M167.8,52.2l2.6,18.5C185.8,65.5,187.1,48.8,167.8,52.2z"/>
		</g>
		<path class="st2" d="M373.6,40.1c6.3-2.5,12.8,11.8,15,16.7c0.4,0.7,1.3,0.8,1.8,0.2c4.9-6.6,9.6-18.6,18.5-17.3
			c7.5,5.9-2,61.1-10.7,46.8c-2-3.7,6.4-31.5,1.9-26.8c-11.6,18.3-15.6,11.9-22.8-3.3c-0.2-0.4-0.7-0.3-0.8,0.1
			c-0.9,8.1-0.3,17.1-4.2,24.3c-2.3,2.9-5.3,0.7-4.9-2.5C367.5,68.4,370.7,42.1,373.6,40.1z"/>
		<path class="st2" d="M204.8,46.9c4.9-1.3,19.1-4.6,14.6,4.9c-1.3,2.8-17.2,3.4-17.3,4.1c-0.5,4.6,0.2,9.8,0.2,9.8
			c5.2-1.6,20.4-5.3,18.2,3.1c-0.8,3.1-19.8,4.6-19.8,4.6c-1,4.1,1.3,8.6,1.3,8.6c3.8,1.4,11.4-1.5,14.8-1.7
			c6.7-0.5,11.5,7.8,4.1,9.9c-9.2,2.5-25.7,10.4-26.5-4.6c-0.5-6-5.5-9.1-0.7-14.7C195.3,61.7,192,47.8,204.8,46.9z"/>
		<g>
			<path class="st2" d="M308,46.2c4.7-3.1,15.1,17.1,17.4,20.9c3.8,6.5,4,24.5-3.8,11.4c-1.3-2.1-2.6-4.3-3.3-5.6
				c-0.4-0.6-1.1-1.1-1.9-1.1c-2.7,0-6.1,0.2-7,1c-3,2.5-0.4,9.1-5.8,11.1C295.8,85.3,303.6,48.5,308,46.2z M310.5,60.6
				c-1,3.6-0.9,5.7,2.6,4c0.8-0.4,1-1.1,0.4-1.9c-0.5-0.8-1.3-1.7-2.1-2.4C311.2,60,310.5,60.1,310.5,60.6z"/>
		</g>
	</g>
</g>
<g>
	<ellipse transform="matrix(0.9381 -0.3464 0.3464 0.9381 -36.4697 21.3216)" class="st3" cx="41.4" cy="112.7" rx="6.1" ry="8.1"/>
	<ellipse transform="matrix(0.9381 -0.3464 0.3464 0.9381 24.5436 166.9095)" class="st3" cx="479.2" cy="14.8" rx="6.1" ry="8.1"/>
	<ellipse transform="matrix(0.5329 -0.8462 0.8462 0.5329 -3.2678 41.898)" class="st3" cx="36.3" cy="23.9" rx="9.9" ry="7.4"/>
	
		<ellipse transform="matrix(0.5329 -0.8462 0.8462 0.5329 126.6066 454.7053)" class="st3" cx="475.2" cy="112.7" rx="7.8" ry="5.8"/>
</g>
<path class="st4" d="M462.6,8.2c0,0-8.1,18.2,12.1,26.2l-5,63.6c0,0-15.1,6.1-10.1,22.2"/>
<path class="st4" d="M52,13.3c0,0,10.1,18.2-10.1,26.2l4,58.5c0,0,15.1,6.1,10.1,22.2"/>
<g>
	<g>
		<path class="st0" d="M197.9,198.5l-171,2c-5.4,0-9.9-4.2-10.1-9.6l-1.3-45.3c-0.3-5.7,4.2-10.6,10-10.6l172.7-0.3
			c6-0.1,10.8,5,10.3,11l-0.4,43.6C207.6,194.4,203.2,198.5,197.9,198.5z"/>
		<path class="st5" d="M32.2,142.4c0,0,1.7,12-11.4,12.8l1.3,28.9c0,0,9.1,0,8.1,8.7l164.6-1.2c0,0-1.2-7.6,7.9-8.4v-32
			c0,0-9.4,2.5-11.2-9.2L32.2,142.4z"/>
		<path class="st2" d="M78.8,148L78.8,148c-2.4,0.2-4.4-1.8-4.5-4.3l-1-16.2c-0.2-2.5,1.6-4.7,4-4.9l0,0c2.4-0.2,4.4,1.8,4.5,4.3
			l1,16.2C83,145.6,81.2,147.8,78.8,148z"/>
		<path class="st2" d="M140.6,146.9L140.6,146.9c-2.4,0-4.3-1.9-4.3-4.3v-16.9c0-2.4,1.9-4.3,4.3-4.3l0,0c2.4,0,4.3,1.9,4.3,4.3
			v16.9C144.9,145,143,146.9,140.6,146.9z"/>
	</g>
	<g>
		<g>
			<path class="st0" d="M317.6,198.5l171,2c5.4,0,9.9-4.2,10.1-9.6l1.3-45.3c0.3-5.7-4.2-10.6-10-10.6l-172.7-0.3
				c-6-0.1-10.8,5-10.3,11l0.4,43.6C308,194.4,312.4,198.5,317.6,198.5z"/>
			<path class="st4" d="M483.3,141.4c0,0-1.7,12.5,11.4,13.3l-1.3,30.1c0,0-9.1,0-8.1,9.1l-164.6-1.3c0,0,1.2-7.9-7.9-8.8v-33.3
				c0,0,9.4,2.6,11.2-9.5L483.3,141.4z"/>
		</g>
		<path class="st2" d="M378.8,147L378.8,147c-2.4,0-4.3-1.9-4.3-4.3v-16.6c0-2.4,1.9-4.3,4.3-4.3l0,0c2.4,0,4.3,1.9,4.3,4.3v16.6
			C383.1,145.1,381.1,147,378.8,147z"/>
		<path class="st2" d="M438.5,147.9L438.5,147.9c-2.4-0.1-4.1-2.2-4-4.5l1-16.6c0.1-2.4,2.2-4.1,4.5-4l0,0c2.4,0.1,4.1,2.2,4,4.5
			l-1,16.6C442.9,146.2,440.9,148,438.5,147.9z"/>
	</g>
</g>
<g>
	
		<linearGradient id="SVGID_1_" gradientUnits="userSpaceOnUse" x1="347.3147" y1="80.8883" x2="347.3147" y2="96.4638" gradientTransform="matrix(1 0 0 -1 0 202)">
		<stop  offset="0" style="stop-color:#ED7B31"/>
		<stop  offset="1" style="stop-color:#E29438"/>
	</linearGradient>
	<path class="st6" d="M348.8,105.5c-0.7,0-1.4,0.2-2.1,0.5c-0.6,0.4-1.1,0.8-1.5,1.4v-1.6h-4v15.3h4.3v-5.3c0.4,0.4,0.9,0.8,1.4,1
		c0.6,0.2,1.2,0.3,1.8,0.3c1.3,0,2.5-0.5,3.4-1.5c0.9-1,1.3-2.4,1.3-4.2c0-1.7-0.4-3.1-1.2-4.2C351.4,106.1,350.2,105.5,348.8,105.5
		z M348.7,113.3c-0.3,0.4-0.8,0.6-1.2,0.6c-0.5,0-1.1-0.2-1.4-0.6c-0.4-0.4-0.5-1.1-0.5-2c0-1,0.2-1.6,0.5-2.1
		c0.3-0.4,0.8-0.6,1.4-0.6c0.5,0,1,0.2,1.3,0.6c0.3,0.4,0.5,1.1,0.5,2C349.2,112.2,349,112.9,348.7,113.3L348.7,113.3z"/>
	
		<linearGradient id="SVGID_2_" gradientUnits="userSpaceOnUse" x1="361.3569" y1="84.8755" x2="361.3569" y2="96.4775" gradientTransform="matrix(1 0 0 -1 0 202)">
		<stop  offset="0" style="stop-color:#ED7B31"/>
		<stop  offset="1" style="stop-color:#E29438"/>
	</linearGradient>
	<path class="st7" d="M365,106.2c-0.9-0.5-2.2-0.7-3.8-0.7c-2,0-3.5,0.5-4.6,1.6s-1.7,2.5-1.7,4.2c0,1.1,0.3,2.2,0.8,3.2
		c0.5,0.8,1.2,1.5,2.1,2c0.8,0.4,2,0.6,3.5,0.6c1.7,0,3-0.2,3.9-0.7c1-0.6,1.8-1.4,2.3-2.4l-4.2-0.4c-0.2,0.3-0.5,0.5-0.7,0.7
		c-0.4,0.2-0.8,0.3-1.2,0.3c-0.6,0-1.2-0.2-1.6-0.7c-0.3-0.4-0.5-1-0.5-1.5h8.5v-0.5c0-1.5-0.2-2.7-0.7-3.6
		C366.6,107.4,365.9,106.7,365,106.2z M359.3,110.3c0-0.5,0.2-1.1,0.5-1.5c0.7-0.9,2-1.1,2.9-0.4c0,0,0.1,0.1,0.1,0.1
		c0.4,0.4,0.6,0.9,0.7,1.8L359.3,110.3z"/>
	
		<linearGradient id="SVGID_3_" gradientUnits="userSpaceOnUse" x1="375.6126" y1="85.1254" x2="375.6126" y2="96.4775" gradientTransform="matrix(1 0 0 -1 0 202)">
		<stop  offset="0" style="stop-color:#ED7B31"/>
		<stop  offset="1" style="stop-color:#E29438"/>
	</linearGradient>
	<path class="st8" d="M377.7,105.5c-0.8,0-1.5,0.1-2.2,0.5c-0.7,0.4-1.3,0.9-1.8,1.6v-1.8h-4v11.1h4.2v-5.3c0-1,0.2-1.7,0.5-2.1
		c0.3-0.4,0.8-0.6,1.3-0.6c0.4,0,0.8,0.1,1.1,0.4c0.3,0.3,0.4,0.8,0.4,1.5v6.1h4.3v-7.1c0-1.5-0.3-2.5-1-3.2
		S378.9,105.5,377.7,105.5z"/>
	
		<linearGradient id="SVGID_4_" gradientUnits="userSpaceOnUse" x1="390.1748" y1="85.1254" x2="390.1748" y2="100.4483" gradientTransform="matrix(1 0 0 -1 0 202)">
		<stop  offset="0" style="stop-color:#ED7B31"/>
		<stop  offset="1" style="stop-color:#E29438"/>
	</linearGradient>
	<polygon class="st9" points="384.3,116.9 389.1,116.9 389.1,110.6 395,110.6 395,107.5 389.1,107.5 389.1,104.8 396,104.8 
		396,101.6 384.3,101.6 	"/>
	
		<linearGradient id="SVGID_5_" gradientUnits="userSpaceOnUse" x1="403.4248" y1="84.8755" x2="403.4248" y2="96.4775" gradientTransform="matrix(1 0 0 -1 0 202)">
		<stop  offset="0" style="stop-color:#ED7B31"/>
		<stop  offset="1" style="stop-color:#E29438"/>
	</linearGradient>
	<path class="st10" d="M403.4,105.5c-1.9,0-3.5,0.5-4.6,1.6c-1.1,1.1-1.8,2.6-1.7,4.2c-0.1,1.7,0.7,3.3,2,4.4
		c1.1,0.9,2.5,1.4,4.3,1.4c2,0,3.6-0.5,4.7-1.6c1.1-1.1,1.7-2.6,1.7-4.2c0-1.4-0.4-2.8-1.4-3.8C407.3,106.2,405.6,105.5,403.4,105.5
		z M404.9,113.5c-0.7,0.8-1.9,0.9-2.8,0.2c-0.1-0.1-0.2-0.2-0.2-0.2c-0.4-0.5-0.6-1.2-0.6-2.2c0-1,0.2-1.7,0.6-2.2
		c0.4-0.5,0.9-0.7,1.5-0.7c0.6,0,1.1,0.3,1.5,0.7c0.4,0.5,0.6,1.2,0.6,2.1C405.5,112.3,405.3,113.1,404.9,113.5L404.9,113.5z"/>
	
		<linearGradient id="SVGID_6_" gradientUnits="userSpaceOnUse" x1="416.2484" y1="85.1254" x2="416.2484" y2="96.4819" gradientTransform="matrix(1 0 0 -1 0 202)">
		<stop  offset="0" style="stop-color:#ED7B31"/>
		<stop  offset="1" style="stop-color:#E29438"/>
	</linearGradient>
	<path class="st11" d="M417.1,106c-0.5,0.4-0.9,1-1.2,1.6v-1.8h-4v11.1h4.3v-3.7c0-1.8,0.2-3,0.7-3.6c0.3-0.4,0.8-0.7,1.3-0.7
		c0.4,0,0.8,0.1,1.2,0.3l1.3-3c-0.6-0.4-1.3-0.6-2.1-0.6C418,105.5,417.5,105.7,417.1,106z"/>
	
		<linearGradient id="SVGID_7_" gradientUnits="userSpaceOnUse" x1="427.466" y1="80.6325" x2="427.466" y2="96.4887" gradientTransform="matrix(1 0 0 -1 0 202)">
		<stop  offset="0" style="stop-color:#ED7B31"/>
		<stop  offset="1" style="stop-color:#E29438"/>
	</linearGradient>
	<path class="st12" d="M433.6,105.8h-4v1.6c-0.4-0.6-0.9-1.1-1.6-1.5c-0.7-0.3-1.4-0.5-2.1-0.5c-1.2,0-2.5,0.5-3.3,1.4
		c-0.8,0.9-1.3,2.2-1.3,4c0,1.5,0.3,2.7,1,3.6c0.9,1.3,2.1,1.9,3.6,1.9c1.3,0,2.6-0.6,3.4-1.6v1.7c0,0.8-0.2,1.4-0.5,1.7
		c-0.4,0.4-0.9,0.5-1.4,0.5c-0.4,0-0.8-0.1-1.2-0.3c-0.2-0.2-0.4-0.5-0.5-0.8l-4.1-0.5c0,0.2,0,0.4,0,0.6c0,1,0.4,2,1.2,2.7
		c0.8,0.7,2.4,1,4.6,1c0.9,0,1.7-0.1,2.6-0.3c0.7-0.1,1.3-0.4,1.9-0.8c0.5-0.4,0.9-0.9,1.2-1.5c0.3-0.6,0.4-1.3,0.4-2v-0.5
		L433.6,105.8z M428.8,112.9c-0.7,0.7-1.8,0.8-2.6,0.1c0,0-0.1-0.1-0.1-0.1c-0.3-0.4-0.5-1-0.5-1.8c0-0.9,0.2-1.6,0.5-2
		c0.3-0.4,0.8-0.6,1.3-0.6c0.5,0,1,0.2,1.4,0.6c0.4,0.4,0.6,1,0.6,1.9S429.1,112.5,428.8,112.9L428.8,112.9z"/>
	
		<linearGradient id="SVGID_8_" gradientUnits="userSpaceOnUse" x1="442.0478" y1="84.8837" x2="442.0478" y2="96.4857" gradientTransform="matrix(1 0 0 -1 0 202)">
		<stop  offset="0" style="stop-color:#ED7B31"/>
		<stop  offset="1" style="stop-color:#E29438"/>
	</linearGradient>
	<path class="st13" d="M448.5,111.9c0-1.5-0.2-2.7-0.7-3.6c-0.5-0.9-1.2-1.6-2.1-2.1c-0.9-0.5-2.2-0.7-3.8-0.7c-2,0-3.5,0.5-4.6,1.6
		c-1.1,1.1-1.7,2.5-1.7,4.2c0,1.1,0.3,2.2,0.8,3.2c0.5,0.8,1.2,1.5,2.1,2c0.8,0.4,2,0.6,3.5,0.6c1.7,0,3-0.2,3.9-0.7
		c1-0.6,1.8-1.4,2.3-2.4l-4.2-0.4c-0.2,0.3-0.5,0.5-0.7,0.7c-0.4,0.2-0.8,0.3-1.2,0.3c-0.6,0-1.2-0.2-1.6-0.7
		c-0.3-0.4-0.5-1-0.5-1.5h8.5L448.5,111.9z M440,110.3c0-0.5,0.2-1,0.5-1.5c0.7-0.9,2-1.1,2.9-0.4c0,0,0.1,0.1,0.1,0.1
		c0.4,0.4,0.6,0.9,0.7,1.8L440,110.3z"/>
	
		<linearGradient id="SVGID_9_" gradientUnits="userSpaceOnUse" x1="331.2094" y1="83.7716" x2="331.2094" y2="103.3104" gradientTransform="matrix(1 0 0 -1 0 202)">
		<stop  offset="0" style="stop-color:#ED7B31"/>
		<stop  offset="1" style="stop-color:#E29438"/>
	</linearGradient>
	<path class="st14" d="M339,107.4c0,0,0-0.1,0-0.1c-0.3-1-0.8-1.8-1.5-2.6l-0.3-0.3l-0.1-0.1c-0.3-0.3-0.7-0.6-1-0.9
		c-0.4-0.4-0.8-0.7-1.1-1.2c-0.3-0.4-0.5-0.8-0.7-1.2c-0.2-0.3-0.2-0.7-0.2-1c0-0.4,0.2-0.7,0.5-0.9c0.3-0.2,0.7-0.2,1-0.2
		c-0.8-0.3-1.6-0.4-2.4-0.3c-0.9,0.2-1.7,0.6-2.3,1.3c-0.6,0.6-1,1.3-1.2,2.1c0,0.1,0,0.2,0,0.3c-1.6,0.2-3.1,1-4.3,2.1
		c-0.1,0.1-0.3,0.3-0.4,0.4c-0.2,0.2-0.3,0.4-0.5,0.6c-0.3,0.4-0.5,0.8-0.7,1.3c-0.5,1.1-0.7,2.3-0.7,3.4c0,2.5,0.9,4.5,2.6,6
		c1.4,1.2,3.3,1.9,5.6,1.9c0.1,0,0.1,0,0.2,0c0.1,0,0.3,0,0.4,0c0.4,0,0.7-0.1,1.1-0.1c1.7-0.2,3.2-0.9,4.4-2.1
		c1.4-1.4,2.1-3.2,2.2-5.4c0,0,0,0,0,0C339.5,109.5,339.3,108.5,339,107.4C339,107.5,339,107.5,339,107.4z M330.6,106.4
		c0.4,0.5,0.7,1,1.2,1.6c0.5,0.6,1,1.2,1.4,1.8c0.3,0.4,0.5,0.7,0.7,1.1c-0.1,1.1-0.3,1.9-0.7,2.4c-0.8,1.1-2.4,1.3-3.4,0.5
		c-0.2-0.1-0.3-0.3-0.5-0.5c-0.5-0.6-0.8-1.6-0.8-3s0.3-2.3,0.8-3C329.6,106.9,330.1,106.6,330.6,106.4L330.6,106.4z"/>
	
		<linearGradient id="SVGID_10_" gradientUnits="userSpaceOnUse" x1="447.6617" y1="99.2002" x2="452.1213" y2="99.2002" gradientTransform="matrix(1 0 0 -1 0 202)">
		<stop  offset="0" style="stop-color:#ED7B31"/>
		<stop  offset="1" style="stop-color:#E29438"/>
	</linearGradient>
	<path class="st15" d="M448.7,103.9h-0.3V102h-0.7v-0.3h1.7v0.3h-0.7V103.9z M451,103.4L451,103.4l-0.8-1.2v1.7h-0.3v-2.2h0.3
		l0.8,1.2l0.8-1.2h0.3v2.2h-0.3v-1.7L451,103.4z"/>
	
		<linearGradient id="SVGID_11_" gradientUnits="userSpaceOnUse" x1="309.3813" y1="82.7303" x2="309.3813" y2="107.8038" gradientTransform="matrix(1 0 0 -1 0 202)">
		<stop  offset="0" style="stop-color:#ED7B31"/>
		<stop  offset="1" style="stop-color:#E29438"/>
	</linearGradient>
	<path class="st16" d="M317.2,107.6c-0.3-2.4-1.5-4.6-3.6-6.5c-0.5-0.4-1-0.9-1.5-1.3c-0.5-0.4-1-0.9-1.4-1.3
		c-0.4-0.4-0.8-0.8-1.1-1.3c-0.2-0.3-0.4-0.8-0.4-1.2c0-0.5,0.2-0.9,0.5-1.2c0.3-0.3,0.7-0.5,1.2-0.4c-1-0.2-2-0.1-3,0.3
		c-1.1,0.5-2,1.2-2.6,2.2c-0.7,0.9-1.1,1.9-1.2,3c-0.1,1,0,1.9,0.4,2.8c0.1,0.2,0.2,0.4,0.3,0.5l0.5-0.5c0,0,0.1-0.1,0.1-0.1
		c0.2-0.1,0.4-0.2,0.7-0.1c0.2,0.1,0.4,0.3,0.6,0.5l2.9,3l0.3-0.3c0.3-0.3,0.8-0.3,1.2,0l0.5,0.5c0.3,0.3,0.3,0.8,0,1.2l-0.3,0.3
		l3.1,3.2c0.3,0.3,0.4,0.9,0,1.2c0,0,0,0,0,0l-4.1,4.1c-0.3,0.3-0.9,0.3-1.2,0c0,0,0,0,0,0l-3.2-3.2l-4.4,4.4
		c2.3,1.5,4.9,2.3,7.7,1.6c1.2-0.3,2.4-0.8,3.4-1.5c1.1-0.8,2-1.8,2.8-2.9C316.9,112.6,317.5,110.1,317.2,107.6z"/>
	
		<linearGradient id="SVGID_12_" gradientUnits="userSpaceOnUse" x1="301.0277" y1="86.254" x2="301.0277" y2="100.462" gradientTransform="matrix(1 0 0 -1 0 202)">
		<stop  offset="0" style="stop-color:#ED7B31"/>
		<stop  offset="1" style="stop-color:#E29438"/>
	</linearGradient>
	<path class="st17" d="M298.1,108.1L298.1,108.1c-0.7,2.7,0,5.5,1.7,7.6l4.4-4.4l-3.2-3.2c-0.3-0.3-0.4-0.9,0-1.2l1.9-1.9
		c-0.1-0.2-0.3-0.4-0.4-0.5c-1.2-1.4-2.5-2.5-4.5-3c0.5,0.2,1,0.6,1.3,1c0.5,0.8,0.7,1.8,0.2,2.6
		C298.9,106.1,298.4,107.1,298.1,108.1z"/>
	
		<linearGradient id="SVGID_13_" gradientUnits="userSpaceOnUse" x1="303.9263" y1="95.2565" x2="303.9263" y2="97.82" gradientTransform="matrix(1 0 0 -1 -9.395772e-05 201.9967)">
		<stop  offset="0" style="stop-color:#ED7B31"/>
		<stop  offset="1" style="stop-color:#E29438"/>
	</linearGradient>
	<path class="st18" d="M302.7,106.4l2.2-2.2c0,0,0.1,0,0.1,0l0.2,0.2c0,0,0,0.1,0,0.1l-2.2,2.2c0,0-0.1,0-0.1,0l-0.2-0.2
		C302.6,106.5,302.6,106.4,302.7,106.4z"/>
	
		<linearGradient id="SVGID_14_" gradientUnits="userSpaceOnUse" x1="311.365" y1="88.3053" x2="311.365" y2="89.747" gradientTransform="matrix(1 0 0 -1 0 202)">
		<stop  offset="0" style="stop-color:#ED7B31"/>
		<stop  offset="1" style="stop-color:#E29438"/>
	</linearGradient>
	<circle class="st19" cx="311.4" cy="113" r="0.7"/>
	
		<linearGradient id="SVGID_15_" gradientUnits="userSpaceOnUse" x1="307.3135" y1="88.5227" x2="307.3135" y2="97.4083" gradientTransform="matrix(1 0 0 -1 -3.952253e-03 201.9968)">
		<stop  offset="0" style="stop-color:#ED7B31"/>
		<stop  offset="1" style="stop-color:#E29438"/>
	</linearGradient>
	<path class="st20" d="M303,108l3.3-3.3c0.2-0.2,0.4-0.2,0.6,0l4.8,4.8c0.2,0.2,0.2,0.4,0,0.6l-3.3,3.3c-0.2,0.2-0.4,0.2-0.6,0
		l-4.8-4.8C302.8,108.4,302.8,108.1,303,108z"/>
</g>
<text transform="matrix(1 0 0 1 232.3744 113.5491)" class="st2 st21 st22">Powered by</text>
</svg>
