<?xml version="1.0" encoding="utf-8"?>
<!-- Generator: Adobe Illustrator 24.1.3, SVG Export Plug-In . SVG Version: 6.00 Build 0)  -->
<svg version="1.1" xmlns="http://www.w3.org/2000/svg" xmlns:xlink="http://www.w3.org/1999/xlink" x="0px" y="0px"
	 viewBox="0 0 152 152" style="enable-background:new 0 0 152 152;" xml:space="preserve">
<style type="text/css">
	.st0{fill:#D68500;}
	.st1{fill:#FCA800;}
	.st2{fill:#904D3B;}
	.st3{fill:#431A0F;}
	.st4{fill:#A65200;}
	.st5{fill:#E58700;}
	.st6{fill:none;stroke:#A65200;stroke-width:3.734;stroke-linecap:round;stroke-miterlimit:10;}
	.st7{fill:none;stroke:#824200;stroke-width:1.6989;stroke-linecap:round;stroke-miterlimit:10;}
	.st8{fill:#704913;}
	.st9{fill:#FFD8A8;}
	.st10{fill:#58C9DF;}
	.st11{fill:#752D00;}
	.st12{fill:#441701;}
	.st13{fill:#00B7D7;}
	.st14{fill:none;stroke:#D87F5B;stroke-width:2.6191;stroke-linecap:round;stroke-linejoin:round;stroke-miterlimit:10;}
	.st15{fill:none;stroke:#D87F5B;stroke-width:2.5665;stroke-linecap:round;stroke-linejoin:round;stroke-miterlimit:10;}
	.st16{fill:#00B4D7;}
	.st17{fill:#235662;}
</style>
<g id="Layer_1">
</g>
<g id="Layer_2">
	<g>
		<path class="st4" d="M148.1,88.9c0,0-4,14.8-23.8,34.7S89,148,89,148c-5.1,5.1-13.3,5.1-18.4,0c0,0-23.2-14.8-39.5-31
			c-12-12-27.4-35.9-27.4-35.9c-5.1-5.1-5.1-13.3,0-18.4c7.4-7.4,5.8-15.4,25-34.7C46.7,10,55.4,11,62.8,3.6
			c5.1-5.1,13.3-5.1,18.4,0c0,0,16,7.6,38.3,29.8c21,21,28.6,37.1,28.6,37.1C153.1,75.6,153.1,83.8,148.1,88.9z"/>
		<path class="st5" d="M141,87.7c0,0-3.6,13.4-21.5,31.3s-31.8,22-31.8,22c-4.6,4.6-12,4.6-16.6,0c0,0-21-13.4-35.6-28
			c-10.8-10.8-24.8-32.3-24.8-32.3c-4.6-4.6-4.6-12,0-16.6c6.7-6.7,5.3-13.9,22.6-31.3c16.3-16.3,24.1-15.4,30.7-22
			c4.6-4.6,12-4.6,16.6,0c0,0,14.5,6.9,34.5,26.9c19,19,25.8,33.4,25.8,33.4C145.6,75.7,145.6,83.1,141,87.7z"/>
		<g>
			<path class="st6" d="M94.2,119.6c0,0-2.4-21.4-30.5-63"/>
			<path class="st4" d="M96.6,99l-4.6,2.1L90,96.5c-1.2-2.7,0-5.9,2.7-7.2l4.6-2.1l2.1,4.6C100.6,94.5,99.3,97.8,96.6,99z"/>
			<path class="st4" d="M91.7,87l-4.6,2.1l-2.1-4.6c-1.2-2.7,0-5.9,2.7-7.2l4.6-2.1l2.1,4.6C95.7,82.6,94.5,85.8,91.7,87z"/>
			<path class="st4" d="M86.1,75.7l-4.4,2.5l-2.5-4.4c-1.5-2.6-0.5-5.9,2.1-7.4l4.4-2.5l2.5,4.4C89.6,70.9,88.7,74.2,86.1,75.7z"/>
			<path class="st4" d="M79.1,64.2l-4.3,2.7l-2.7-4.3c-1.6-2.5-0.8-5.9,1.7-7.5l4.3-2.7l2.7,4.3C82.4,59.3,81.7,62.6,79.1,64.2z"/>
			<path class="st4" d="M62.2,48.5l-1.1,4.9l-4.9-1.1c-2.9-0.7-4.8-3.6-4.1-6.5l1.1-4.9l4.9,1.1C61.1,42.6,62.9,45.6,62.2,48.5z"/>
			<path class="st4" d="M79.9,106l4.7-1.7l-1.7-4.7c-1-2.8-4.2-4.2-7-3.2l-4.7,1.7l1.7,4.7C73.9,105.6,77.1,107,79.9,106z"/>
			<path class="st4" d="M75.3,94.8l4.5-2.3l-2.3-4.5c-1.3-2.7-4.6-3.8-7.3-2.4l-4.5,2.3l2.3,4.5C69.4,95.1,72.6,96.2,75.3,94.8z"/>
			<path class="st4" d="M69.6,84.3l4.5-2.3l-2.3-4.5c-1.3-2.7-4.6-3.8-7.3-2.4L60,77.4l2.3,4.5C63.6,84.6,66.9,85.6,69.6,84.3z"/>
			<path class="st4" d="M64.3,73.5l4.3-2.7l-2.7-4.3c-1.6-2.5-4.9-3.3-7.5-1.7l-4.3,2.7l2.7,4.3C58.4,74.3,61.8,75.1,64.3,73.5z"/>
			<path class="st4" d="M72.8,54.1l-4.3,2.7l-2.7-4.3C64.2,50,65,46.6,67.6,45l4.3-2.7l2.7,4.3C76.1,49.1,75.3,52.5,72.8,54.1z"/>
			<path class="st4" d="M57.9,63.4l4.3-2.7l-2.7-4.3c-1.6-2.5-4.9-3.3-7.5-1.7l-4.3,2.7l2.7,4.3C52,64.2,55.4,65,57.9,63.4z"/>
		</g>
		<g>
			<line class="st7" x1="90.6" y1="136.8" x2="93" y2="142.8"/>
			<line class="st7" x1="96.1" y1="133.6" x2="98.5" y2="139.6"/>
			<line class="st7" x1="101.7" y1="130.5" x2="104.1" y2="136.5"/>
			<line class="st7" x1="106.7" y1="126.7" x2="109.1" y2="132.7"/>
			<line class="st7" x1="111.7" y1="122.9" x2="114.1" y2="128.9"/>
			<line class="st7" x1="116" y1="118.5" x2="118.4" y2="124.6"/>
			<line class="st7" x1="120.4" y1="114.2" x2="122.8" y2="120.2"/>
			<line class="st7" x1="124.8" y1="109.8" x2="127.2" y2="115.8"/>
			<line class="st7" x1="128.5" y1="104.8" x2="130.9" y2="110.8"/>
			<line class="st7" x1="132.3" y1="99.9" x2="134.7" y2="105.9"/>
			<line class="st7" x1="136.1" y1="94.9" x2="138.5" y2="100.9"/>
			<line class="st7" x1="138.6" y1="88.7" x2="141" y2="94.7"/>
		</g>
		<g>
			<line class="st7" x1="132.6" y1="65.9" x2="138.6" y2="63.5"/>
			<line class="st7" x1="129.5" y1="60.3" x2="135.5" y2="57.9"/>
			<line class="st7" x1="126.3" y1="54.8" x2="132.3" y2="52.4"/>
			<line class="st7" x1="122.5" y1="49.8" x2="128.5" y2="47.4"/>
			<line class="st7" x1="118.7" y1="44.8" x2="124.8" y2="42.4"/>
			<line class="st7" x1="114.4" y1="40.5" x2="120.4" y2="38.1"/>
			<line class="st7" x1="110" y1="36.1" x2="116" y2="33.7"/>
			<line class="st7" x1="105.6" y1="31.7" x2="111.7" y2="29.3"/>
			<line class="st7" x1="100.7" y1="28" x2="106.7" y2="25.6"/>
			<line class="st7" x1="95.7" y1="24.2" x2="101.7" y2="21.8"/>
			<line class="st7" x1="90.7" y1="20.4" x2="96.7" y2="18"/>
			<line class="st7" x1="84.6" y1="17.9" x2="90.6" y2="15.5"/>
		</g>
		<g>
			<line class="st7" x1="30" y1="41.2" x2="24" y2="38.8"/>
			<g>
				<line class="st7" x1="16.1" y1="62.3" x2="10.1" y2="59.9"/>
				<line class="st7" x1="19.3" y1="56.7" x2="13.3" y2="54.3"/>
				<line class="st7" x1="22.4" y1="51.2" x2="16.4" y2="48.8"/>
				<line class="st7" x1="26.2" y1="46.2" x2="20.2" y2="43.8"/>
				<line class="st7" x1="34.3" y1="36.9" x2="28.3" y2="34.5"/>
				<line class="st7" x1="38.7" y1="32.5" x2="32.7" y2="30.1"/>
				<line class="st7" x1="43.1" y1="28.1" x2="37.1" y2="25.7"/>
				<line class="st7" x1="48" y1="24.4" x2="42" y2="22"/>
				<line class="st7" x1="53" y1="20.6" x2="47" y2="18.2"/>
				<line class="st7" x1="58" y1="16.8" x2="52" y2="14.4"/>
				<line class="st7" x1="64.1" y1="14.3" x2="58.1" y2="11.9"/>
			</g>
		</g>
		<g>
			<line class="st7" x1="19.9" y1="86.6" x2="13.9" y2="89"/>
			<line class="st7" x1="23" y1="92.1" x2="17" y2="94.5"/>
			<line class="st7" x1="26.2" y1="97.7" x2="20.2" y2="100.1"/>
			<line class="st7" x1="30" y1="102.7" x2="24" y2="105.1"/>
			<line class="st7" x1="33.7" y1="107.6" x2="27.7" y2="110"/>
			<line class="st7" x1="38.1" y1="112" x2="32.1" y2="114.4"/>
			<line class="st7" x1="42.5" y1="116.4" x2="36.5" y2="118.8"/>
			<line class="st7" x1="46.8" y1="120.7" x2="40.8" y2="123.1"/>
			<line class="st7" x1="51.8" y1="124.5" x2="45.8" y2="126.9"/>
			<line class="st7" x1="56.8" y1="128.3" x2="50.8" y2="130.7"/>
			<line class="st7" x1="61.7" y1="132" x2="55.7" y2="134.4"/>
			<line class="st7" x1="67.9" y1="134.6" x2="61.9" y2="137"/>
		</g>
	</g>
</g>
</svg>
