<?xml version="1.0" encoding="utf-8"?>
<!-- Generator: Adobe Illustrator 24.1.3, SVG Export Plug-In . SVG Version: 6.00 Build 0)  -->
<svg version="1.1" id="Layer_1" xmlns="http://www.w3.org/2000/svg" xmlns:xlink="http://www.w3.org/1999/xlink" x="0px" y="0px"
	 viewBox="0 0 1020 134" style="enable-background:new 0 0 1020 134;" xml:space="preserve">
<style type="text/css">
	.st0{fill:#FCA800;}
</style>
<g id="Layer_1_1_">
</g>
<path class="st0" d="M1011,0h-2c-5,0-9,4-9,9v23h-80V9c0-5-4-9-9-9h-2c-5,0-9,4-9,9v23h-80V9c0-5-4-9-9-9h-2c-5,0-9,4-9,9v23h-80V9
	c0-5-4-9-9-9h-2c-5,0-9,4-9,9v23h-80V9c0-5-4-9-9-9h-2c-5,0-9,4-9,9v23h-80V9c0-5-4-9-9-9h-2c-5,0-9,4-9,9v23h-80V9c0-5-4-9-9-9h-2
	c-5,0-9,4-9,9v23h-80V9c0-5-4-9-9-9h-2c-5,0-9,4-9,9v23h-80V9c0-5-4-9-9-9h-2c-5,0-9,4-9,9v23h-80V9c0-5-4-9-9-9h-2c-5,0-9,4-9,9v23
	H20V9c0-5-4-9-9-9H9C4,0,0,4,0,9v116c0,5,4,9,9,9h2c5,0,9-4,9-9V95h80v30c0,5,4,9,9,9h2c5,0,9-4,9-9V95h80v30c0,5,4,9,9,9h2
	c5,0,9-4,9-9V95h80v30c0,5,4,9,9,9h2c5,0,9-4,9-9V95h80v30c0,5,4,9,9,9h2c5,0,9-4,9-9V95h80v30c0,5,4,9,9,9h2c5,0,9-4,9-9V95h80v30
	c0,5,4,9,9,9h2c5,0,9-4,9-9V95h80v30c0,5,4,9,9,9h2c5,0,9-4,9-9V95h80v30c0,5,4,9,9,9h2c5,0,9-4,9-9V95h80v30c0,5,4,9,9,9h2
	c5,0,9-4,9-9V95h80v30c0,5,4,9,9,9h2c5,0,9-4,9-9V95V77V50V32V9C1020,4,1016,0,1011,0z M100,77H20V50h80V77z M200,77h-80V50h80V77z
	 M300,77h-80V50h80V77z M400,77h-80V50h80V77z M500,77h-80V50h80V77z M600,77h-80V50h80V77z M700,77h-80V50h80V77z M800,77h-80V50
	h80V77z M900,77h-80V50h80V77z M1000,77h-80V50h80V77z"/>
</svg>
